<?xml version="1.0" standalone="no"?>
<!DOCTYPE svg PUBLIC "-//W3C//DTD SVG 20010904//EN"
 "http://www.w3.org/TR/2001/REC-SVG-20010904/DTD/svg10.dtd">
<svg version="1.0" xmlns="http://www.w3.org/2000/svg"
 width="512.000000pt" height="512.000000pt" viewBox="0 0 512.000000 512.000000"
 preserveAspectRatio="xMidYMid meet">
<metadata>
Created by potrace 1.11, written by Peter Selinger 2001-2013
</metadata>
<g transform="translate(0.000000,512.000000) scale(0.100000,-0.100000)"
fill="#000000" stroke="none">
<path d="M410 3980 l0 -210 1450 0 1450 0 0 210 0 210 -1450 0 -1450 0 0 -210z"/>
<path d="M400 2391 c0 -621 3 -1143 6 -1160 l6 -31 1449 0 1449 0 0 420 0 420
150 -75 150 -75 0 -225 0 -225 555 0 555 0 0 258 c0 141 -5 286 -10 322 -15
89 -51 160 -111 214 -98 89 -205 112 -734 161 -417 38 -422 39 -502 61 l-53
15 0 524 0 525 -95 0 -95 0 0 -480 c0 -264 -3 -480 -6 -480 -3 0 -68 32 -144
71 l-138 70 -32 65 c-48 98 -100 120 -144 61 -17 -23 -20 -42 -20 -102 1 -62
6 -85 32 -136 l30 -63 -34 -67 -34 -68 163 -84 c89 -47 199 -103 245 -126 l82
-41 0 -375 0 -375 -1265 0 -1265 0 0 1065 0 1065 -95 0 -95 0 0 -1129z"/>
<path d="M810 3210 l0 -210 405 0 405 0 0 210 0 210 -405 0 -405 0 0 -210z"/>
<path d="M4195 3210 c-127 -40 -226 -140 -265 -268 -66 -212 54 -436 268 -502
212 -66 436 54 502 268 95 307 -199 599 -505 502z"/>
<path d="M800 2680 l0 -210 710 0 710 0 0 210 0 210 -710 0 -710 0 0 -210z"/>
<path d="M750 2070 l0 -210 975 0 975 0 0 210 0 210 -975 0 -975 0 0 -210z"/>
</g>
</svg>
