<svg xmlns="http://www.w3.org/2000/svg" xmlns:xlink="http://www.w3.org/1999/xlink" version="1.1" id="Layer_1" x="0px" y="0px" width="100px" height="100px" viewBox="0 0 100 100" style="enable-background:new 0 0 100 100;" xml:space="preserve">
<g>
	<path style="fill:#010101;" d="M90.797,59.104l-0.089-0.021c-0.455-1.385-0.957-2.771-1.47-4.15   c-0.415-1.092-0.93-2.123-1.556-3.088c-1.625-2.58-3.279-5.158-4.923-7.742c-0.302-0.452-0.577-0.934-0.806-1.415   c-0.812-1.577-4.384-4.929-7.546-2.956c-0.059,0.037-0.133,0.004-0.175-0.015c-1.895-1.047-3.924-1.817-6.05-2.272   c-2.48-0.509-5.29-0.228-7.609,0.925h-0.075l-1.557,0.995l-2.075-0.923c-0.307-0.141-0.639-0.211-0.993-0.248   c-2.097-0.232-4.03,0.236-5.811,1.411l-1.323,1.382l-0.135-0.1H48.53L34.037,28.623c0.141-0.432,0.24-0.882,0.3-1.344l6.771-0.019   l0.086-1.938l-6.861,0.019c-0.483-3.632-3.593-6.446-7.355-6.446c-3.767,0-6.88,2.821-7.356,6.459h-8.187v-2.746l-3.218,1.857   L5,26.323l3.217,1.857l3.218,1.857v-2.746h8.187c0.477,3.639,3.59,6.459,7.356,6.459c0.829,0,1.625-0.143,2.37-0.395l19.844,19.46   c0.232,0.236,0.448,0.469,0.625,0.738c0.852,1.191,1.191,2.51,1.051,3.98c-0.004,0.416-0.196,0.885-0.397,1.066   c-1.314,1.273-2.857,1.838-4.651,1.711c-2.214-0.076-4.844-1.654-6.868-2.43c-1.141-0.438-2.344-1.156-3.557-1.43   c-2.204-0.498-5.634,0.391-6.302,2.771c-0.219,0.777,0.035,2.268,0.921,2.551c1.289,0.412,2.833,0.809,3.928,1.406   c0.944,0.516,1.86,1.162,2.786,1.857c0.629,0.473,1.778,1.801,2.484,1.887c0.762,0.092,1.807,0.822,2.49,1.072   c1.643,0.602,3.677,1.275,5.14,2.262c3.011,1.193,5.618,3.498,8.89,4.477c3.791,1.135,7.519,2.016,11.571,1.42   c1.553-0.148,2.996,0.098,4.356,0.758l4.729,4.559C79.779,78.02,93.565,64.418,95,62.908L90.797,59.104z M21.616,26.323   c0-2.956,2.405-5.361,5.361-5.361s5.361,2.405,5.361,5.361c0,0.272-0.041,0.534-0.08,0.795l-1.316-1.114   c-0.091-0.074-0.18-0.143-0.268-0.209c-2.135-1.605-3.247-0.824-4.297,0.226c0,0-2.053,1.924-0.223,4.163   c0.1,0.121,0.207,0.243,0.329,0.366l1.096,1.074c-0.2,0.023-0.396,0.061-0.603,0.061C24.021,31.684,21.616,29.279,21.616,26.323z"/>
	<path style="fill:#010101;" d="M47.268,24.208l-0.227-0.061c-0.057,0.21-0.104,0.422-0.142,0.637l0.231,0.041   C47.167,24.618,47.213,24.412,47.268,24.208z"/>
	<path style="fill:#010101;" d="M47.568,23.317l-0.218-0.089c-0.082,0.201-0.156,0.406-0.221,0.613l0.224,0.07   C47.417,23.71,47.488,23.512,47.568,23.317z"/>
	<path style="fill:#010101;" d="M47.981,22.472l-0.204-0.116c-0.107,0.189-0.207,0.382-0.298,0.58l0.213,0.098   C47.78,22.842,47.877,22.655,47.981,22.472z"/>
	<path style="fill:#010101;" d="M48.499,21.686l-0.188-0.141c-0.131,0.173-0.255,0.353-0.37,0.537l0.198,0.125   C48.252,22.028,48.372,21.854,48.499,21.686z"/>
	<path style="fill:#010101;" d="M49.112,20.972l-0.168-0.164c-0.152,0.155-0.297,0.318-0.436,0.486l0.182,0.149   C48.824,21.28,48.965,21.123,49.112,20.972z"/>
	<path style="fill:#010101;" d="M49.812,20.342l-0.146-0.184c-0.171,0.135-0.336,0.277-0.494,0.426l0.161,0.171   C49.486,20.611,49.646,20.473,49.812,20.342z"/>
	<path style="fill:#010101;" d="M50.585,19.807l-0.121-0.201c-0.187,0.112-0.368,0.231-0.544,0.359l0.138,0.19   C50.229,20.032,50.404,19.916,50.585,19.807z"/>
	<path style="fill:#010101;" d="M51.421,19.375l-0.094-0.215c-0.2,0.086-0.396,0.183-0.586,0.287l0.112,0.206   C51.038,19.552,51.228,19.459,51.421,19.375z"/>
	<path style="fill:#010101;" d="M52.306,19.055l-0.065-0.226c-0.209,0.061-0.415,0.131-0.618,0.209l0.085,0.219   C51.903,19.182,52.104,19.114,52.306,19.055z"/>
	<path style="fill:#010101;" d="M53.225,18.851l-0.036-0.232c-0.215,0.034-0.429,0.077-0.64,0.128l0.056,0.228   C52.81,18.925,53.016,18.884,53.225,18.851z"/>
	<path style="fill:#010101;" d="M54.162,18.765l-0.007-0.234c-0.218,0.006-0.435,0.022-0.65,0.046l0.026,0.233   C53.74,18.786,53.951,18.771,54.162,18.765z"/>
	<path style="fill:#010101;" d="M55.125,18.565c-0.216-0.021-0.434-0.034-0.651-0.037l-0.003,0.235   c0.211,0.003,0.422,0.015,0.631,0.036L55.125,18.565z"/>
	<path style="fill:#010101;" d="M56.083,18.724c-0.212-0.049-0.426-0.089-0.641-0.121l-0.033,0.233   c0.208,0.03,0.416,0.069,0.621,0.117L56.083,18.724z"/>
	<path style="fill:#010101;" d="M57.013,19.004c-0.204-0.076-0.41-0.144-0.62-0.202l-0.063,0.226   c0.203,0.057,0.403,0.123,0.601,0.196L57.013,19.004z"/>
	<path style="fill:#010101;" d="M57.898,19.402c-0.191-0.102-0.389-0.194-0.589-0.279l-0.092,0.216   c0.194,0.082,0.385,0.172,0.571,0.271L57.898,19.402z"/>
	<path style="fill:#010101;" d="M58.727,19.91c-0.178-0.125-0.361-0.243-0.549-0.353L58.06,19.76   c0.182,0.106,0.359,0.221,0.531,0.342L58.727,19.91z"/>
	<path style="fill:#010101;" d="M59.482,20.52c-0.16-0.147-0.327-0.287-0.499-0.42l-0.144,0.186   c0.167,0.129,0.328,0.265,0.483,0.407L59.482,20.52z"/>
	<path style="fill:#010101;" d="M60.155,21.219c-0.141-0.167-0.288-0.326-0.442-0.479l-0.165,0.167   c0.149,0.148,0.292,0.303,0.428,0.464L60.155,21.219z"/>
	<path style="fill:#010101;" d="M60.732,22c-0.118-0.183-0.244-0.36-0.377-0.532l-0.186,0.144c0.129,0.167,0.251,0.339,0.365,0.516   L60.732,22z"/>
	<path style="fill:#010101;" d="M60.994,22.949l0.212-0.101c-0.094-0.196-0.195-0.389-0.306-0.577l-0.202,0.119   C60.805,22.572,60.903,22.759,60.994,22.949z"/>
	<path style="fill:#010101;" d="M61.343,23.823l0.223-0.073c-0.066-0.207-0.143-0.411-0.229-0.611l-0.216,0.092   C61.204,23.425,61.277,23.622,61.343,23.823z"/>
	<path style="fill:#010101;" d="M61.576,24.734l0.23-0.043c-0.04-0.214-0.09-0.426-0.148-0.635l-0.227,0.063   C61.488,24.322,61.538,24.526,61.576,24.734z"/>
	<path style="fill:#010101;" d="M61.691,25.668l0.234-0.014c-0.013-0.217-0.036-0.433-0.066-0.648l-0.232,0.034   C61.657,25.248,61.68,25.458,61.691,25.668z"/>
	<path style="fill:#010101;" d="M61.938,25.973l-0.235,0.004c0.004,0.211,0,0.422-0.015,0.632l0.234,0.016   C61.938,26.408,61.941,26.19,61.938,25.973z"/>
	<path style="fill:#010101;" d="M61.894,26.943l-0.233-0.026c-0.022,0.209-0.055,0.418-0.096,0.625l0.23,0.046   C61.837,27.374,61.87,27.159,61.894,26.943z"/>
	<path style="fill:#010101;" d="M61.726,27.899l-0.229-0.056c-0.05,0.205-0.108,0.407-0.176,0.607l0.223,0.075   C61.613,28.319,61.674,28.11,61.726,27.899z"/>
	<path style="fill:#010101;" d="M61.436,28.826l-0.219-0.084c-0.076,0.196-0.161,0.39-0.254,0.579l0.212,0.103   C61.27,29.229,61.357,29.029,61.436,28.826z"/>
	<path style="fill:#010101;" d="M61.028,29.708l-0.206-0.112c-0.101,0.185-0.208,0.367-0.324,0.542l0.195,0.129   C60.813,30.086,60.925,29.899,61.028,29.708z"/>
	<path style="fill:#010101;" d="M59.931,30.889l0.178,0.153c0.142-0.165,0.276-0.336,0.404-0.512l-0.191-0.137   C60.198,30.563,60.068,30.729,59.931,30.889z"/>
	<path style="fill:#010101;" d="M59.431,31.737c0.161-0.146,0.316-0.298,0.465-0.457l-0.171-0.16   c-0.145,0.154-0.295,0.301-0.451,0.442L59.431,31.737z"/>
	<path style="fill:#010101;" d="M58.669,32.339c0.18-0.123,0.353-0.255,0.52-0.394l-0.149-0.181   c-0.162,0.134-0.33,0.262-0.504,0.382L58.669,32.339z"/>
	<path style="fill:#010101;" d="M57.837,32.839c0.192-0.1,0.382-0.208,0.565-0.324l-0.125-0.199   c-0.179,0.113-0.361,0.217-0.549,0.314L57.837,32.839z"/>
	<path style="fill:#010101;" d="M56.947,33.228c0.204-0.074,0.405-0.157,0.603-0.248l-0.099-0.213   c-0.191,0.088-0.386,0.168-0.584,0.24L56.947,33.228z"/>
	<path style="fill:#010101;" d="M56.015,33.5c0.212-0.047,0.423-0.103,0.63-0.169l-0.07-0.224c-0.201,0.064-0.405,0.117-0.611,0.163   L56.015,33.5z"/>
	<path style="fill:#010101;" d="M55.055,33.649c0.217-0.02,0.433-0.048,0.646-0.087l-0.041-0.231   c-0.207,0.038-0.417,0.065-0.627,0.084L55.055,33.649z"/>
	<path style="fill:#010101;" d="M54.085,33.676c0.217,0.008,0.435,0.007,0.651-0.005l-0.012-0.234   c-0.21,0.011-0.421,0.012-0.632,0.004L54.085,33.676z"/>
	<path style="fill:#010101;" d="M53.118,33.58c0.215,0.036,0.431,0.062,0.647,0.079l0.019-0.234c-0.21-0.016-0.42-0.042-0.628-0.076   L53.118,33.58z"/>
	<path style="fill:#010101;" d="M52.173,33.36c0.208,0.063,0.419,0.116,0.632,0.161l0.048-0.229   c-0.206-0.043-0.41-0.095-0.612-0.156L52.173,33.36z"/>
	<path style="fill:#010101;" d="M51.263,33.019c0.198,0.089,0.401,0.169,0.606,0.242l0.077-0.222   c-0.199-0.07-0.395-0.148-0.587-0.234L51.263,33.019z"/>
	<path style="fill:#010101;" d="M50.404,32.565c0.186,0.114,0.376,0.22,0.57,0.317l0.104-0.21c-0.188-0.095-0.372-0.197-0.552-0.308   L50.404,32.565z"/>
	<path style="fill:#010101;" d="M50.136,32.393l0.131-0.195c-0.175-0.118-0.345-0.242-0.509-0.375l-0.147,0.183   C49.78,32.143,49.956,32.271,50.136,32.393z"/>
	<path style="fill:#010101;" d="M49.366,31.8l0.155-0.176c-0.158-0.139-0.311-0.285-0.457-0.437l-0.169,0.163   C49.046,31.506,49.203,31.657,49.366,31.8z"/>
	<path style="fill:#010101;" d="M48.854,30.96c-0.139-0.158-0.271-0.322-0.397-0.492l-0.188,0.14c0.13,0.175,0.267,0.344,0.41,0.507   L48.854,30.96z"/>
	<path style="fill:#010101;" d="M48.278,30.216c-0.118-0.174-0.229-0.354-0.331-0.538l-0.205,0.114   c0.105,0.19,0.22,0.375,0.342,0.555L48.278,30.216z"/>
	<path style="fill:#010101;" d="M47.802,29.405c-0.095-0.188-0.181-0.38-0.259-0.576l-0.219,0.087   c0.081,0.202,0.171,0.4,0.269,0.595L47.802,29.405z"/>
	<path style="fill:#010101;" d="M47.023,27.992c0.055,0.21,0.117,0.419,0.188,0.624l0.222-0.077   c-0.069-0.199-0.13-0.401-0.183-0.605L47.023,27.992z"/>
	<path style="fill:#010101;" d="M46.95,27.682l0.23-0.049c-0.027-0.128-0.045-0.259-0.065-0.389l3.786-0.01l-0.006-1.938   l-3.827,0.011c0.006-0.059,0.008-0.118,0.016-0.176L46.852,25.1c-0.01,0.069-0.012,0.138-0.019,0.208l-4.669,0.013l-0.086,1.938   l4.8-0.013C46.9,27.391,46.92,27.537,46.95,27.682z"/>
</g>
</svg>